Coordinates
version=1
nRows=21
nColumns=22
inDegrees=yes

Units are S.I. units (second, meters, Newtons, ...)
If the header above contains a line with 'inDegrees', this indicates whether rotational values are in degrees (yes) or radians (no).

endheader
time	pelvis_tilt	pelvis_list	pelvis_rotation	pelvis_tx	pelvis_ty	pelvis_tz	hip_flexion_r	hip_adduction_r	hip_rotation_r	knee_angle_r	ankle_angle_r	subtalar_angle_r	hip_flexion_l	hip_adduction_l	hip_rotation_l	knee_angle_l	ankle_angle_l	subtalar_angle_l	lumbar_extension	lumbar_bending	lumbar_rotation
      1.59000000	    -21.76114040	      2.42812679	    -22.32626718	     -0.24429781	      0.88469688	      0.09360266	     23.18244795	      7.56768718	     -1.11994944	    -41.01378773	     37.63093058	     -1.80830532	     66.74260364	    -11.60077184	     -2.98007642	    -68.89255130	     19.21610553	     -0.49764367	    -10.28250173	      1.21668313	     14.76092764
      1.60000000	    -21.22831547	      2.50557264	    -22.16086011	     -0.22078165	      0.88945119	      0.09929075	     20.25296660	      7.21571492	     -0.03777152	    -39.27067905	     35.67463685	     -0.72982376	     66.23431371	    -11.45626057	     -3.91209978	    -64.18426535	     17.92704841	      1.91599239	     -9.83905903	      0.71072301	     15.26441971
      1.61000000	    -20.67117564	      2.55215026	    -21.99255119	     -0.19678386	      0.89411870	      0.10468835	     17.58941779	      6.82588443	      0.94643324	    -38.06618572	     33.22862759	      0.53466985	     65.36994262	    -11.15458900	     -4.82058387	    -59.49839717	     16.47090481	      4.66411388	     -9.42282487	      0.29931445	     15.69482771
      1.62000000	    -20.13792031	      2.54118234	    -21.86938067	     -0.17254526	      0.89853291	      0.10985585	     15.33596460	      6.47480151	      1.84476411	    -37.55901024	     30.39674675	      1.96184249	     64.28076564	    -10.77852783	     -5.63561976	    -55.06041132	     14.86078661	      7.55861546	     -9.01581894	      0.02302049	     16.10119759
      1.63000000	    -19.63124661	      2.45614189	    -21.78956868	     -0.14820271	      0.90261028	      0.11475310	     13.57635217	      6.18070709	      2.60056294	    -37.86210787	     27.21262176	      3.40618307	     63.03573451	    -10.34573569	     -6.29369870	    -51.06412822	     13.30669945	     10.23418446	     -8.64143932	     -0.09547379	     16.47478935
      1.64000000	    -19.19412976	      2.29574464	    -21.74786448	     -0.12398245	      0.90619921	      0.11945041	     12.40854264	      5.98766972	      3.22174173	    -39.01594521	     23.78407303	      4.70984903	     61.76285614	     -9.91277247	     -6.78886712	    -47.70471307	     11.87474413	     12.40563060	     -8.27146964	     -0.06051800	     16.81317062
      1.65000000	    -18.78986107	      2.10411299	    -21.72992231	     -0.10000704	      0.90924530	      0.12393582	     11.84548593	      5.84384215	      3.69856134	    -41.01340481	     20.22773961	      5.61262718	     60.47758953	     -9.46754512	     -7.17775565	    -45.09917112	     10.75720686	     13.69761398	     -7.94473633	      0.05787469	     17.06789681
      1.66000000	    -18.47188676	      1.90427747	    -21.70614656	     -0.07643909	      0.91156307	      0.12823359	     11.93256082	      5.76211387	      4.04223786	    -43.74684324	     16.75450260	      6.01198311	     59.29808554	     -9.02055447	     -7.46529289	    -43.33031525	      9.93294407	     13.96029679	     -7.59988191	      0.24192005	     17.20780463
      1.67000000	    -18.13911041	      1.77790874	    -21.66063912	     -0.05326825	      0.91316965	      0.13232424	     12.57815425	      5.59184238	      4.19831856	    -47.10375945	     13.62731584	      5.95108593	     58.13983994	     -8.50393437	     -7.75358235	    -42.36902800	      9.59096693	     13.32767467	     -7.31706247	      0.35050116	     17.21343082
      1.68000000	    -17.79841900	      1.68931664	    -21.55044152	     -0.03047992	      0.91395473	      0.13618385	     13.69635913	      5.35808576	      4.15075851	    -50.87098390	     11.03908271	      5.24155876	     57.03024492	     -7.91081417	     -7.96623160	    -42.16281571	      9.81067722	     11.25595478	     -7.09717298	      0.43070551	     16.98605238
      1.69000000	    -17.39536705	      1.72649868	    -21.40179533	     -0.00812759	      0.91397302	      0.13983154	     15.22681139	      4.93655548	      3.96051748	    -54.90805794	      9.24171971	      4.28056301	     55.91706718	     -7.18689520	     -8.14183832	    -42.55394401	     10.47892126	      8.47825795	     -6.97151666	      0.35202391	     16.59818334
      1.70000000	    -16.92314407	      1.89176237	    -21.20781994	      0.01382732	      0.91320446	      0.14324650	     17.10494945	      4.29822012	      3.64468391	    -59.05714995	      8.33846708	      3.15807482	     54.80942024	     -6.32046530	     -8.26094706	    -43.41722918	     11.62393573	      5.27883623	     -6.94224176	      0.11792830	     16.02252843
      1.71000000	    -16.35850157	      2.16197270	    -20.95959554	      0.03538957	      0.91178859	      0.14642698	     19.24430040	      3.44795467	      3.24017282	    -63.16239179	      8.22565736	      1.93747898	     53.69483660	     -5.31558775	     -8.31037957	    -44.62302566	     13.09565286	      2.10349017	     -7.05597348	     -0.25382456	     15.23862130
      1.72000000	    -15.71681816	      2.53629363	    -20.67689539	      0.05655463	      0.90982340	      0.14936271	     21.62318492	      2.39388371	      2.81282455	    -67.11393272	      8.80964481	      0.61673339	     52.58706374	     -4.17686352	     -8.27963419	    -46.04153823	     14.82334444	     -0.73227306	     -7.30268614	     -0.74582801	     14.30258892
      1.73000000	    -15.02056557	      2.99157883	    -20.35494382	      0.07733107	      0.90745374	      0.15209121	     24.20984330	      1.18331191	      2.40694985	    -70.79709736	      9.95451271	     -0.80868993	     51.49698645	     -2.93406009	     -8.20039183	    -47.57000733	     16.68490340	     -3.01780594	     -7.67149328	     -1.32410824	     13.22367729
      1.74000000	    -14.30525713	      3.48496641	    -20.00895050	      0.09772198	      0.90483394	      0.15467552	     26.98184198	     -0.09577468	      2.06303372	    -74.10968737	     11.49904709	     -2.37394018	     50.42252551	     -1.64584046	     -8.08831089	    -49.11683928	     18.59540588	     -4.78684094	     -8.14478514	     -1.92402905	     12.02544457
      1.75000000	    -13.61195833	      4.06085052	    -19.66987739	      0.11776310	      0.90207080	      0.15717066	     29.97836643	     -1.44139650	      1.83653661	    -76.99884362	     13.14775675	     -3.91393897	     49.36083589	     -0.31762678	     -8.02859851	    -50.56208728	     20.53762104	     -5.99716544	     -8.64864712	     -2.58037663	     10.78943178
      1.76000000	    -12.96505772	      4.61468352	    -19.31859188	      0.13753707	      0.89932582	      0.15965441	     33.10664979	     -2.71427375	      1.67377880	    -79.35982165	     14.86711225	     -5.48035765	     48.28623975	      0.96649666	     -7.97312624	    -51.87540049	     22.43658708	     -6.87173100	     -9.18276296	     -3.17168189	      9.49649982
      1.77000000	    -12.37568193	      5.14729220	    -18.97646634	      0.15714272	      0.89671919	      0.16219104	     36.32761595	     -3.89254859	      1.56448404	    -81.14789825	     16.46254319	     -6.88177628	     47.16944976	      2.17998251	     -7.96311042	    -53.00235018	     24.28711283	     -7.44386826	     -9.71112113	     -3.69547788	      8.19224128
      1.78000000	    -11.83424841	      5.63369318	    -18.65547950	      0.17668140	      0.89437400	      0.16484331	     39.55843345	     -4.93107982	      1.48350763	    -82.33032593	     17.82946612	     -8.04969299	     45.96457309	      3.30009386	     -7.98642145	    -53.91409092	     26.08091284	     -7.81961037	    -10.22589597	     -4.13064338	      6.88378146
      1.79000000	    -11.33121101	      6.03824874	    -18.34508071	      0.19627380	      0.89238643	      0.16762965	     42.69753044	     -5.81161893	      1.35820695	    -82.88082741	     18.95132202	     -8.99777751	     44.63553848	      4.30821099	     -8.01036292	    -54.60759243	     27.80994892	     -8.08902761	    -10.72350520	     -4.43926678	      5.57010111
